<svg id="Layer_1" data-name="Layer 1" xmlns="http://www.w3.org/2000/svg" xmlns:xlink="http://www.w3.org/1999/xlink" viewBox="0 0 589.08 181.12"><defs><style>.cls-1{fill:url(#linear-gradient);}.cls-2{fill:#334155;}</style><linearGradient id="linear-gradient" x1="48.39" y1="179.87" x2="85.63" y2="5.89" gradientUnits="userSpaceOnUse"><stop offset="0" stop-color="#2564e8"/><stop offset="0.05" stop-color="#2868e9"/><stop offset="0.68" stop-color="#5194f6"/><stop offset="1" stop-color="#60a5fb"/></linearGradient></defs><path class="cls-1" d="M143.34,71.67a62.32,62.32,0,0,1-1,11.17c-8.73,49.13-70.64,98.28-70.64,98.28S0,132,0,71.67A71.68,71.68,0,0,1,107.2,9.42a14.92,14.92,0,0,1,3.21,23.51h0a15,15,0,0,1-18,2.32A41.88,41.88,0,1,0,112,82.84H86.57A14.9,14.9,0,0,1,71.67,68h0a14.9,14.9,0,0,1,14.9-14.9h38.07a18.62,18.62,0,0,1,18.7,18.43Z"/><path class="cls-2" d="M271.08,89.37v7.72q0,21.45-14,34.74T221,145.13q-23.56,0-39.06-15.08a49.43,49.43,0,0,1-15.49-36.82q0-21.87,15.35-37t38-15.16a54,54,0,0,1,26,6.37,47.73,47.73,0,0,1,18.33,16.94l-17.17,9.72a26.94,26.94,0,0,0-11-10,34.71,34.71,0,0,0-16.37-3.86q-14.55,0-23.93,9.37t-9.38,23.66q0,14.16,9.53,23.38t25.24,9.22q11.63,0,19.27-5.08a25.26,25.26,0,0,0,10.4-13.94H220V89.37Z"/><path class="cls-2" d="M293.77,63.06a11.13,11.13,0,0,1-8.07-3.36,10.75,10.75,0,0,1-3.42-7.93,11.7,11.7,0,0,1,11.49-11.44A11.18,11.18,0,0,1,302,43.76a11,11,0,0,1,3.42,8A10.75,10.75,0,0,1,302,59.7,11.31,11.31,0,0,1,293.77,63.06Zm-9.31,80.07V71.64h18.77v71.49Z"/><path class="cls-2" d="M376.11,71.64h18.33V139.7q0,16.58-11.13,25.3t-26.84,8.73a46.07,46.07,0,0,1-20.73-4.44,31.29,31.29,0,0,1-13.75-13l16-9q5.52,10,19.05,10,8.88,0,14-4.57t5.09-13V132q-8.3,10.86-23.28,10.86-15.42,0-25.82-10.65a35.76,35.76,0,0,1-10.4-25.95,35.71,35.71,0,0,1,10.47-25.88,34.6,34.6,0,0,1,25.75-10.72q15,0,23.28,10.87Zm-35,48.68q5.75,5.5,14.62,5.51t14.62-5.51a18.63,18.63,0,0,0,5.75-14.08,18.49,18.49,0,0,0-5.75-13.94q-5.75-5.51-14.62-5.5t-14.62,5.5a18.48,18.48,0,0,0-5.74,13.94A18.62,18.62,0,0,0,341.12,120.32Z"/><path class="cls-2" d="M411.46,143.13V38.76h18.76V143.13Z"/><path class="cls-2" d="M456.7,63.06a11.1,11.1,0,0,1-8.07-3.36,10.71,10.71,0,0,1-3.42-7.93A11.7,11.7,0,0,1,456.7,40.33a11.18,11.18,0,0,1,8.22,3.43,11,11,0,0,1,3.42,8,10.79,10.79,0,0,1-3.42,7.93A11.31,11.31,0,0,1,456.7,63.06Zm-9.31,80.07V71.64h18.76v71.49Z"/><path class="cls-2" d="M500.05,91.94q0,2.86,3.85,4.65a52.43,52.43,0,0,0,9.39,3.15,97.42,97.42,0,0,1,11.05,3.43,21.38,21.38,0,0,1,9.38,6.93,18.94,18.94,0,0,1,3.86,12.15q0,11-8.36,16.95t-20.88,5.93q-22.41,0-30.55-17l16.29-9q3.21,9.3,14.26,9.29,10,0,10-6.15,0-2.85-3.86-4.64a55.62,55.62,0,0,0-9.38-3.22,98.64,98.64,0,0,1-11.06-3.57,22.71,22.71,0,0,1-9.38-6.8,17.61,17.61,0,0,1-3.85-11.65q0-10.58,7.92-16.65t19.72-6.08a33.41,33.41,0,0,1,16.14,3.93,29,29,0,0,1,11.49,11.22l-16,8.58a12,12,0,0,0-11.63-7.29,10.87,10.87,0,0,0-6,1.57A4.89,4.89,0,0,0,500.05,91.94Z"/><path class="cls-2" d="M589.08,89.37H572.64v29.74q0,3.72,1.89,5.43a8.77,8.77,0,0,0,5.53,1.93,83.77,83.77,0,0,0,9-.07v16.73q-19.35,2.15-27.28-3.58t-7.93-20.44V89.37H541.22V71.64h12.65V57.2l18.84-.11-.07,14.55h16.44Z"/></svg>